<svg width="96" height="96" xmlns="http://www.w3.org/2000/svg" xmlns:xlink="http://www.w3.org/1999/xlink" xml:space="preserve" overflow="hidden"><defs><clipPath id="clip0"><rect x="818" y="298" width="96" height="96"/></clipPath></defs><g clip-path="url(#clip0)" transform="translate(-818 -298)"><path d="M882 328C882 336.837 874.837 344 866 344 857.163 344 850 336.837 850 328 850 319.163 857.163 312 866 312 874.837 312 882 319.163 882 328Z"/><path d="M898 380 898 364C898 361.6 896.8 359.2 894.8 357.6 890.4 354 884.8 351.6 879.2 350 875.2 348.8 870.8 348 866 348 861.6 348 857.2 348.8 852.8 350 847.2 351.6 841.6 354.4 837.2 357.6 835.2 359.2 834 361.6 834 364L834 380 898 380Z"/></g></svg>